<?xml version="1.0" encoding="utf-8"?>
<!-- Generator: Adobe Illustrator 17.1.0, SVG Export Plug-In . SVG Version: 6.00 Build 0)  -->
<!DOCTYPE svg PUBLIC "-//W3C//DTD SVG 1.1//EN" "http://www.w3.org/Graphics/SVG/1.1/DTD/svg11.dtd">
<svg version="1.1" id="Layer_1" xmlns="http://www.w3.org/2000/svg" xmlns:xlink="http://www.w3.org/1999/xlink" x="0px" y="0px"
	 viewBox="0 0 536.3 166.7" enable-background="new 0 0 536.3 166.7" xml:space="preserve">
<rect x="0.3" y="-0.3" fill="#FFFFFF" width="536" height="167"/>
<g>
	<path fill-rule="evenodd" clip-rule="evenodd" fill="#2118D4" d="M91.9,23.6c-33.3,0-60.4,27-60.4,60.4c0,26.7,17.3,49.3,41.3,57.3
		c3,0.6,4.1-1.3,4.1-2.9c0-1.4-0.1-6.2-0.1-11.2c-16.8,3.7-20.3-7.1-20.3-7.1c-2.7-7-6.7-8.8-6.7-8.8c-5.5-3.7,0.4-3.7,0.4-3.7
		c6.1,0.4,9.3,6.2,9.3,6.2c5.4,9.2,14.1,6.6,17.6,5c0.5-3.9,2.1-6.6,3.8-8.1c-13.4-1.5-27.5-6.7-27.5-29.8c0-6.6,2.4-12,6.2-16.2
		c-0.6-1.5-2.7-7.7,0.6-16c0,0,5.1-1.6,16.6,6.2c4.8-1.3,10-2,15.1-2c5.1,0,10.3,0.7,15.1,2c11.5-7.8,16.6-6.2,16.6-6.2
		c3.3,8.3,1.2,14.5,0.6,16c3.9,4.2,6.2,9.6,6.2,16.2c0,23.2-14.1,28.3-27.6,29.8c2.2,1.9,4.1,5.5,4.1,11.2c0,8.1-0.1,14.6-0.1,16.6
		c0,1.6,1.1,3.5,4.1,2.9c24-8,41.3-30.6,41.3-57.3C152.3,50.6,125.3,23.6,91.9,23.6z"/>
	<path fill="#2118D4" d="M54.4,110.3c-0.1,0.3-0.6,0.4-1,0.2c-0.4-0.2-0.7-0.6-0.5-0.9c0.1-0.3,0.6-0.4,1-0.2
		C54.3,109.5,54.6,110,54.4,110.3L54.4,110.3z M53.7,109.7"/>
	<path fill="#2118D4" d="M56.9,113c-0.3,0.3-0.9,0.1-1.2-0.3c-0.4-0.4-0.5-1-0.2-1.3c0.3-0.3,0.8-0.1,1.2,0.3
		C57.1,112.2,57.2,112.7,56.9,113L56.9,113z M56.3,112.4"/>
	<path fill="#2118D4" d="M59.3,116.5c-0.4,0.3-1,0-1.3-0.5c-0.4-0.5-0.4-1.2,0-1.4c0.4-0.3,1,0,1.3,0.5
		C59.6,115.6,59.6,116.2,59.3,116.5L59.3,116.5z M59.3,116.5"/>
	<path fill="#2118D4" d="M62.5,119.8c-0.3,0.4-1,0.3-1.6-0.2c-0.5-0.5-0.7-1.2-0.3-1.5c0.3-0.4,1-0.3,1.6,0.2
		C62.7,118.8,62.9,119.5,62.5,119.8L62.5,119.8z M62.5,119.8"/>
	<path fill="#2118D4" d="M67,121.8c-0.1,0.5-0.8,0.7-1.5,0.5c-0.7-0.2-1.1-0.8-1-1.2c0.1-0.5,0.8-0.7,1.5-0.5
		C66.7,120.7,67.2,121.3,67,121.8L67,121.8z M67,121.8"/>
	<path fill="#2118D4" d="M72,122.1c0,0.5-0.6,0.9-1.3,0.9c-0.7,0-1.3-0.4-1.3-0.9c0-0.5,0.6-0.9,1.3-0.9
		C71.4,121.2,72,121.6,72,122.1L72,122.1z M72,122.1"/>
	<path fill="#2118D4" d="M76.6,121.4c0.1,0.5-0.4,1-1.1,1.1c-0.7,0.1-1.3-0.2-1.4-0.7c-0.1-0.5,0.4-1,1.1-1.1
		C75.8,120.6,76.5,120.9,76.6,121.4L76.6,121.4z M76.6,121.4"/>
</g>
<g>
	<path fill="#2118D4" d="M240.7,80.3h-28.3c-0.7,0-1.3,0.6-1.3,1.3v13.8c0,0.7,0.6,1.3,1.3,1.3h11V114c0,0-2.5,0.8-9.3,0.8
		c-8.1,0-19.4-3-19.4-27.8c0-24.9,11.8-28.1,22.8-28.1c9.6,0,13.7,1.7,16.3,2.5c0.8,0.3,1.6-0.6,1.6-1.3l3.2-13.4
		c0-0.3-0.1-0.8-0.5-1c-1.1-0.8-7.6-4.4-24-4.4c-18.9,0-38.3,8-38.3,46.7c0,38.7,22.2,44.4,40.9,44.4c15.5,0,24.9-6.6,24.9-6.6
		c0.4-0.2,0.4-0.8,0.4-1V81.7C242,80.9,241.4,80.3,240.7,80.3L240.7,80.3z"/>
	<path fill="#2118D4" d="M386.6,46c0-0.7-0.6-1.3-1.3-1.3h-15.9c-0.7,0-1.3,0.6-1.3,1.3c0,0,0,30.8,0,30.8h-24.9V46
		c0-0.7-0.6-1.3-1.3-1.3h-15.9c-0.7,0-1.3,0.6-1.3,1.3v83.4c0,0.7,0.6,1.3,1.3,1.3h15.9c0.7,0,1.3-0.6,1.3-1.3V93.7h24.9
		c0,0,0,35.7,0,35.7c0,0.7,0.6,1.3,1.3,1.3h16c0.7,0,1.3-0.6,1.3-1.3V46L386.6,46z"/>
	<path fill="#2118D4" d="M270.8,56.9c0-5.7-4.6-10.4-10.3-10.4c-5.7,0-10.3,4.6-10.3,10.4c0,5.7,4.6,10.4,10.3,10.4
		C266.2,67.3,270.8,62.6,270.8,56.9L270.8,56.9z"/>
	<path fill="#2118D4" d="M269.6,111.8c0-2.1,0-38.5,0-38.5c0-0.7-0.6-1.3-1.3-1.3h-15.9c-0.7,0-1.4,0.8-1.4,1.5c0,0,0,46.3,0,55.2
		c0,1.6,1,2.1,2.3,2.1c0,0,6.8,0,14.3,0c1.6,0,2-0.8,2-2.1C269.6,125.6,269.6,114,269.6,111.8L269.6,111.8z"/>
	<path fill="#2118D4" d="M447.2,72.1h-15.8c-0.7,0-1.3,0.6-1.3,1.3v40.9c0,0-4,2.9-9.7,2.9c-5.7,0-7.2-2.6-7.2-8.2
		c0-5.6,0-35.7,0-35.7c0-0.7-0.6-1.3-1.3-1.3h-16.1c-0.7,0-1.3,0.6-1.3,1.3c0,0,0,21.8,0,38.4c0,16.6,9.2,20.7,22,20.7
		c10.4,0,18.9-5.8,18.9-5.8s0.4,3,0.6,3.4c0.2,0.4,0.7,0.7,1.2,0.7l10.2,0c0.7,0,1.3-0.6,1.3-1.3l0-56
		C448.5,72.7,448,72.1,447.2,72.1L447.2,72.1z"/>
	<path fill="#2118D4" d="M484.2,117.2c-5.5-0.2-9.2-2.7-9.2-2.7V88.1c0,0,3.7-2.3,8.2-2.7c5.7-0.5,11.2,1.2,11.2,14.8
		C494.4,114.6,491.9,117.4,484.2,117.2L484.2,117.2z M490.5,70.2c-9,0-15.1,4-15.1,4V46c0-0.7-0.6-1.3-1.3-1.3h-16
		c-0.7,0-1.3,0.6-1.3,1.3v83.4c0,0.7,0.6,1.3,1.3,1.3c0,0,11.1,0,11.1,0c0.5,0,0.9-0.3,1.2-0.7c0.3-0.4,0.7-3.8,0.7-3.8
		s6.5,6.2,18.9,6.2c14.5,0,22.9-7.4,22.9-33.1C512.8,73.6,499.5,70.2,490.5,70.2L490.5,70.2z"/>
	<path fill="#2118D4" d="M315.5,71.9h-12c0,0,0-15.8,0-15.8c0-0.6-0.3-0.9-1-0.9h-16.3c-0.6,0-1,0.3-1,0.9v16.3c0,0-8.2,2-8.7,2.1
		c-0.6,0.2-1,0.7-1,1.3v10.3c0,0.7,0.6,1.3,1.3,1.3h8.4c0,0,0,10.7,0,24.7c0,18.3,12.9,20.1,21.5,20.1c4,0,8.7-1.3,9.5-1.6
		c0.5-0.2,0.7-0.7,0.7-1.2l0-11.3c0-0.7-0.6-1.3-1.3-1.3c-0.7,0-2.5,0.3-4.3,0.3c-5.9,0-7.9-2.7-7.9-6.3c0-3.5,0-23.5,0-23.5h12
		c0.7,0,1.3-0.6,1.3-1.3V73.3C316.8,72.5,316.2,71.9,315.5,71.9L315.5,71.9z"/>
</g>
</svg>
