<?xml version="1.0" encoding="utf-8"?>
<!-- Generator: Adobe Illustrator 17.1.0, SVG Export Plug-In . SVG Version: 6.00 Build 0)  -->
<!DOCTYPE svg PUBLIC "-//W3C//DTD SVG 1.1//EN" "http://www.w3.org/Graphics/SVG/1.1/DTD/svg11.dtd">
<svg version="1.1" id="Layer_1" xmlns="http://www.w3.org/2000/svg" xmlns:xlink="http://www.w3.org/1999/xlink" x="0px" y="0px"
	 viewBox="0 0 747.9 691.3" enable-background="new 0 0 747.9 691.3" xml:space="preserve">
<g>
	<path fill="#FFFFFF" d="M654.2,214.5l-186-72.2l-48.8-92.1c-1.1-2.1-3.1-3.6-5.5-4L160.3,0.1c0,0-0.1,0-0.1,0c-0.1,0-0.3,0-0.5-0.1
		c-0.1,0-0.2,0-0.3,0c-0.1,0-0.3,0-0.4,0c-0.1,0-0.2,0-0.3,0c-0.1,0-0.2,0-0.3,0c-0.1,0-0.2,0-0.4,0c-0.1,0-0.2,0-0.3,0
		c-0.1,0-0.3,0-0.4,0.1c-0.1,0-0.1,0-0.2,0c-0.2,0-0.3,0.1-0.5,0.1c-0.1,0-0.1,0-0.2,0.1c-0.2,0.1-0.3,0.1-0.5,0.2
		c-0.1,0-0.1,0.1-0.2,0.1c-0.1,0.1-0.3,0.1-0.4,0.2c-0.2,0.1-0.4,0.2-0.6,0.3c0,0,0,0,0,0c-0.6,0.4-1.1,0.8-1.6,1.3
		c-0.3,0.3-0.6,0.7-0.9,1.1L47,163.5c-0.5,0.8-0.9,1.7-1.1,2.6L38,201.2c-1,4.2,1.7,8.4,5.9,9.3c0.6,0.1,1.2,0.2,1.7,0.2
		c3.6,0,6.8-2.5,7.6-6.1l7.6-33.7l77.8-118.2l-31.3,115.7c-1.1,4.2,1.3,8.4,5.5,9.6c4.2,1.1,8.4-1.3,9.6-5.5L164,18.8l268.8,124.5
		l-223,19.4c-4.3,0.4-7.5,4.2-7.1,8.4c0.4,4.1,3.8,7.1,7.8,7.1c0.2,0,0.6,0,0.8,0L455,157v45.9c0,4.3,3.2,7.8,7.5,7.8
		s7.5-3.5,7.5-7.8v-29.9l24.7,34.5c1.5,2.1,4,3.3,6.5,3.3c1.6,0,3.2-0.5,4.6-1.4c3.5-2.5,4.4-7.4,1.9-10.9L484,165.2L648.5,229
		c0.9,0.4,1.9,0.5,2.8,0.5c3.1,0,6.1-1.9,7.3-5C660.2,220.5,658.2,216,654.2,214.5z M407.3,60.9l37.6,70.8L217.5,26.4L407.3,60.9z"
		/>
	<g>
		<path fill="#FFFFFF" d="M741.8,377.9c-4.2-0.9-8.4,1.8-9.2,6l-6.5,30.5L640.6,444L622,416c-2.4-3.6-7.2-4.6-10.8-2.2
			c-3.6,2.4-4.6,7.2-2.2,10.8l17.2,25.8l-150.1,78.3l-2.6-108.6c-0.1-4.3-3.7-7.8-8-7.6c-4.3,0.1-7.7,3.7-7.6,8l2.5,107.1L324,446.6
			c0,0,0,0,0,0l-55.7-33c-3.7-2.2-8.5-1-10.7,2.7c-2.2,3.7-1,8.5,2.7,10.7l38,22.5l-164.5,31.5l-62.2-34.5c0,0,0,0,0,0l-0.1-0.1
			c-0.1,0-0.2-0.1-0.2-0.1c-0.1-0.1-0.3-0.1-0.4-0.2c-0.1-0.1-0.3-0.1-0.4-0.2c-0.1,0-0.2-0.1-0.2-0.1c0,0,0,0-0.1,0
			c-0.2-0.1-0.3-0.1-0.5-0.1c-0.1,0-0.2,0-0.2-0.1c-0.2,0-0.3-0.1-0.5-0.1c-0.1,0-0.2,0-0.3,0c-0.1,0-0.3,0-0.4,0
			c-0.1,0-0.2,0-0.3,0c-0.1,0-0.2,0-0.3,0c-0.1,0-0.3,0-0.4,0c-0.1,0-0.2,0-0.3,0c-0.2,0-0.3,0-0.5,0.1c-0.1,0-0.2,0-0.3,0.1
			c-0.2,0-0.3,0.1-0.5,0.1c-0.1,0-0.2,0.1-0.3,0.1c-0.1,0-0.3,0.1-0.4,0.1c-0.1,0-0.2,0.1-0.4,0.2c-0.1,0-0.2,0.1-0.3,0.1
			c-0.1,0.1-0.3,0.2-0.4,0.2c-0.1,0-0.2,0.1-0.2,0.1c-0.1,0.1-0.3,0.2-0.4,0.3c-0.1,0.1-0.2,0.1-0.2,0.2c-0.1,0.1-0.2,0.2-0.3,0.3
			c-0.1,0.1-0.2,0.2-0.3,0.2c-0.1,0.1-0.2,0.2-0.2,0.2c-0.1,0.1-0.2,0.2-0.3,0.3c-0.1,0.1-0.1,0.1-0.2,0.2c-0.1,0.1-0.2,0.3-0.3,0.4
			c0,0.1-0.1,0.1-0.1,0.2c-0.1,0.2-0.2,0.3-0.3,0.5c0,0,0,0,0,0c0,0.1-0.1,0.2-0.1,0.2c-0.1,0.1-0.1,0.3-0.2,0.4
			c-0.1,0.1-0.1,0.3-0.2,0.4c0,0.1-0.1,0.2-0.1,0.3L43.2,502l-25.4-37.4c-2.4-3.6-7.3-4.5-10.8-2.1c-3.6,2.4-4.5,7.3-2.1,10.8
			l34.2,50.4c0,0.1,0.1,0.1,0.1,0.2c0.1,0.2,0.2,0.3,0.3,0.5c0.1,0.1,0.2,0.2,0.2,0.3c0.1,0.1,0.2,0.3,0.4,0.4
			c0.1,0.1,0.2,0.2,0.3,0.3c0.1,0.1,0.3,0.2,0.4,0.3c0.1,0.1,0.2,0.2,0.3,0.2c0.2,0.2,0.5,0.3,0.7,0.4c0.1,0,0.2,0.1,0.3,0.1
			c0.2,0.1,0.4,0.2,0.5,0.2c0.1,0,0.2,0.1,0.3,0.1c0.2,0.1,0.4,0.1,0.5,0.2c0.1,0,0.2,0.1,0.4,0.1c0.1,0,0.2,0.1,0.4,0.1l138.3,22.2
			l148.6,29.8c0.5,0.1,1,0.2,1.5,0.2c1.9,0,3.8-0.7,5.3-2c1.8-1.7,2.8-4.1,2.5-6.6L329.5,468l135.1,80.1c0.1,0,0.2,0.1,0.2,0.1
			c0.1,0.1,0.3,0.1,0.4,0.2c0.2,0.1,0.4,0.2,0.6,0.3c0.1,0.1,0.3,0.1,0.4,0.1c0.2,0.1,0.5,0.1,0.7,0.2c0.1,0,0.3,0.1,0.4,0.1
			c0.3,0.1,0.7,0.1,1,0.1c0,0,0.1,0,0.1,0c0,0,0.1,0,0.1,0c0.3,0,0.6,0,0.9-0.1c0,0,0,0,0,0l155.3-22.1c3.3-0.5,5.9-2.9,6.5-6.1
			l12.7-61.7l91.1-31.6c2.6-0.9,4.5-3.1,5.1-5.7l7.4-34.8C748.6,382.9,746,378.8,741.8,377.9z M282.4,468.5L215.5,512l-30.3,19.6
			l-36.9-37.4L282.4,468.5z M72.1,464.7l55.7,30.9l34.1,34.6l-105.9-17L72.1,464.7z M204.4,537.7l92.2-59.8l17.1-11.1l10.3,94.9
			L204.4,537.7z M617.3,512.5l-104.8,14.9l114-59.5L617.3,512.5z"/>
		<path fill="#FFFFFF" d="M542.8,647.5L394,564.6c-2.6-1.4-5.8-1.3-8.2,0.4c-2.4,1.7-3.7,4.6-3.3,7.5l16.2,112.1
			c0.3,2.1,1.5,4.1,3.3,5.3c1.3,0.9,2.9,1.4,4.4,1.4c0.6,0,1.1-0.1,1.7-0.2L540.6,662c3.2-0.7,5.6-3.3,6-6.5
			C547.1,652.3,545.6,649.1,542.8,647.5z M412.9,674.1l-12.7-88.2l117.1,65.2L412.9,674.1z"/>
	</g>
	<g>
		<path fill="#FFFFFF" d="M396.2,341.2h-42c-3,0-5.7-1.5-7.1-4.2l-14.3-27.4c-1.3-2.4-1.2-5.3,0.2-7.7l16.1-27.6
			c1.4-2.4,4.1-4.1,6.9-4.1h40.2c4.4,0,8.8,3.9,8.8,8.3v55C405,337.9,400.6,341.2,396.2,341.2z M359,325.2h30v-39h-28.4L349,305.9
			L359,325.2z"/>
		<path fill="#FFFFFF" d="M686,341.5c-4.4,0-8-3.6-8-8v-55c0-4.4,2.8-8.3,7.2-8.3h43.6c3,0,5.8,1.8,7.1,4.5l5.4,10.5
			c2,3.9,0.5,8.8-3.5,10.8c-3.9,2-8.8,0.3-10.8-3.6l-3.1-6.2H694v47.3C694,337.9,690.4,341.5,686,341.5z"/>
		<path fill="#FFFFFF" d="M579,301.8l-14.3-27.2c-1.4-2.6-4.1-4.4-7.1-4.4h-42.4c-0.2,0-0.3,0.2-0.5,0.2c-0.2,0,0.1,0.1-0.1,0.1
			c-4.4,0-7.6,3.7-7.6,8.1v79c0,4.4,3.6,8,8,8s8-3.6,8-8v-16.3h32.8c2.9,0,5.5-1.4,6.9-3.9l16.1-27.9
			C580.2,307,580.2,304.2,579,301.8z M551.1,325.2H523v-39h29.8l10,18.9L551.1,325.2z"/>
		<path fill="#FFFFFF" d="M655.2,341.2h-43c-3,0-5.7-1.5-7.1-4.2l-14.3-27.4c-1.3-2.4-1.2-5.3,0.2-7.7l16.1-27.6
			c1.4-2.4,4.1-4.1,6.9-4.1h41.6c2.8,0,5.4,1.6,6.9,4c1.4,2.4,1.5,5.5,0.2,8L647.8,310c-1.4,2.6-4.1,4.1-7.1,4.1h-9.5
			c-4.4,0-8-3.6-8-8s3.6-8,8-8h4.7l6.4-12h-23.7l-11.6,19.7l10,19.3h38.1c4.4,0,8,3.6,8,8S659.6,341.2,655.2,341.2z"/>
		<path fill="#FFFFFF" d="M495.2,301.8L481,274.6c-1.4-2.6-4.1-4.4-7.1-4.4h-43.7c-0.2,0-0.3,0.2-0.5,0.2c-0.2,0,0.1,0.1-0.1,0.1
			c-4.4,0-7.6,3.7-7.6,8.1v79c0,4.4,3.6,8,8,8s8-3.6,8-8v-16.3h34c2.9,0,5.5-1.4,6.9-3.9l16.1-27.9
			C496.4,307,496.5,304.2,495.2,301.8z M467.4,325.2H438v-39h31.1l10,18.9L467.4,325.2z"/>
		<path fill="#FFFFFF" d="M245,341.5c-4.4,0-8-3.6-8-8v-78.9c0-3.4,1.8-6.5,5-7.6c3.2-1.1,6.6,0,8.7,2.7l27.7,36.2l26.2-35.9
			c2-2.8,6-4,9.3-3c3.3,1.1,5.9,4.1,5.9,7.6v78.9c0,4.4-3.6,8-8,8s-8-3.6-8-8v-54.9L285.6,304c-1.5,2.1-4,3.3-6.6,3.4
			c-2.5,0-4.6-1.1-6.2-3.1L253,278.1v55.4C253,337.9,249.4,341.5,245,341.5z"/>
	</g>
	<g>
		<path fill="#FFFFFF" d="M158.5,295.5c-5.2,0-9.5,4.2-9.5,9.3v113.7c0,5.2,4.3,9.3,9.5,9.3s9.5-4.2,9.5-9.3V304.9
			C168,299.7,163.7,295.5,158.5,295.5z"/>
		<path fill="#FFFFFF" d="M158.3,272.4c7.2,0,13-5.8,13-13c0-7.2-5.8-13-13-13s-13,5.8-13,13C145.3,266.6,151.1,272.4,158.3,272.4z"
			/>
		<path fill="#FFFFFF" d="M96.9,248.9c-1.6-1.9-4-2.8-7.3-2.8H10.2C5.3,246.2,0,249,0,254.5v164c0,5.2,4.3,9.5,9.5,9.5
			s9.5-4.3,9.5-9.5V265.2h66.2l28.4,33.7l-28.5,35.3H49.2c-5.2,0-9.5,4.3-9.5,9.5s4.3,9.5,9.5,9.5h40.4c2.6,0,5.4-1.6,7.4-4.1
			l36.3-45.4c2.9-3.5,2.8-8.5-0.1-11.9L96.9,248.9z"/>
	</g>
</g>
</svg>
