<?xml version="1.0" encoding="utf-8"?>
<!-- Generator: Adobe Illustrator 17.0.0, SVG Export Plug-In . SVG Version: 6.00 Build 0)  -->
<!DOCTYPE svg PUBLIC "-//W3C//DTD SVG 1.1//EN" "http://www.w3.org/Graphics/SVG/1.1/DTD/svg11.dtd">
<svg version="1.1" id="Layer_1" xmlns="http://www.w3.org/2000/svg" xmlns:xlink="http://www.w3.org/1999/xlink" x="0px" y="0px"
	 width="340.265px" height="250.022px" viewBox="0 0 340.265 250.022" enable-background="new 0 0 340.265 250.022"
	 xml:space="preserve">
<g>
	<path fill="#FFFFFF" d="M181.924,148.155h-19.241c-1.367,0-2.621-0.581-3.25-1.794l-6.529-12.495
		c-0.579-1.117-0.545-2.408,0.092-3.493l7.381-12.497c0.657-1.121,1.859-1.72,3.158-1.72h18.389c2.022,0,4.056,1.507,4.056,3.529
		v25.172C185.979,146.878,183.946,148.155,181.924,148.155z M164.908,141.155h14.071v-18h-13.347l-5.297,9.108L164.908,141.155z"/>
	<path fill="#FFFFFF" d="M314.479,148.517c-2.022,0-3.5-1.639-3.5-3.661v-25.172c0-2.022,1.188-3.529,3.21-3.529h19.954
		c1.374,0,2.633,0.703,3.259,1.927l2.459,4.729c0.921,1.8,0.209,3.989-1.591,4.911c-1.8,0.921-4.006,0.106-4.927-1.694l-1.439-2.872
		h-13.925v21.7C317.979,146.878,316.501,148.517,314.479,148.517z"/>
	<path fill="#FFFFFF" d="M265.561,130.348l-6.529-12.307c-0.634-1.201-1.88-1.886-3.238-1.886h-19.408
		c-0.077,0-0.153-0.059-0.229-0.055c-0.076-0.005,0.205-0.045,0.127-0.045c-2.022,0-3.305,1.606-3.305,3.628v36.156
		c0,2.022,1.478,3.661,3.5,3.661s3.5-1.639,3.5-3.661v-7.684h14.963c1.309,0,2.518-0.518,3.172-1.651l7.381-12.708
		C266.123,132.706,266.148,131.46,265.561,130.348z M252.827,141.155h-12.848v-18h13.607l4.556,8.709L252.827,141.155z"/>
	<path fill="#FFFFFF" d="M300.459,148.155h-19.684c-1.367,0-2.62-0.581-3.25-1.794l-6.529-12.495
		c-0.579-1.117-0.545-2.408,0.092-3.493l7.381-12.497c0.657-1.121,1.859-1.72,3.158-1.72h19.02c1.286,0,2.477,0.608,3.139,1.71
		c0.662,1.102,0.697,2.438,0.092,3.573l-6.824,12.796c-0.636,1.194-1.879,1.921-3.232,1.921h-4.347c-2.022,0-3.661-1.478-3.661-3.5
		s1.639-3.5,3.661-3.5h2.149l2.925-6h-10.824l-5.297,9.108l4.574,8.892h17.459c2.022,0,3.661,1.478,3.661,3.5
		C304.12,146.677,302.481,148.155,300.459,148.155z"/>
	<path fill="#FFFFFF" d="M227.238,130.348l-6.529-12.307c-0.634-1.201-1.88-1.886-3.238-1.886h-19.987
		c-0.077,0-0.153-0.059-0.229-0.055c-0.076-0.005,0.156-0.045,0.078-0.045c-2.022,0-3.354,1.606-3.354,3.628v36.156
		c0,2.022,1.478,3.661,3.5,3.661s3.5-1.639,3.5-3.661v-7.684h15.64c1.309,0,2.518-0.518,3.172-1.651l7.381-12.708
		C227.8,132.706,227.825,131.46,227.238,130.348z M214.504,141.155h-13.525v-18h14.284l4.556,8.709L214.504,141.155z"/>
	<path fill="#FFFFFF" d="M112.479,148.517c-2.022,0-3.5-1.639-3.5-3.661v-36.132c0-1.568,0.857-2.962,2.342-3.467
		c1.484-0.505,3.055-0.008,4.011,1.236l12.707,16.585l12.018-16.446c0.924-1.297,2.72-1.85,4.236-1.364
		c1.517,0.485,2.686,1.895,2.686,3.487v36.1c0,2.022-1.478,3.661-3.5,3.661s-3.5-1.639-3.5-3.661v-25.103l-8.571,11.604
		c-0.673,0.946-1.91,1.516-3.071,1.537c-1.165,0.017-2.36-0.51-3.068-1.43l-9.29-11.965v25.357
		C115.979,146.878,114.501,148.517,112.479,148.517z"/>
</g>
<g>
	<path fill="#FFFFFF" d="M73.479,127.497c-2.397,0-4.5,1.918-4.5,4.276v52.055c0,2.358,2.103,4.276,4.5,4.276s4.5-1.918,4.5-4.276
		v-52.055C77.979,129.415,75.877,127.497,73.479,127.497z"/>
	<path fill="#FFFFFF" d="M73.037,116.899c3.281,0,5.95-2.669,5.95-5.95s-2.669-5.95-5.95-5.95s-5.95,2.669-5.95,5.95
		C67.087,114.23,69.756,116.899,73.037,116.899z"/>
	<path fill="#FFFFFF" d="M44.921,106.3c-0.738-0.876-1.825-1.145-3.325-1.145H5.264c-2.265,0-4.285,1.039-4.285,3.545v75.057
		c0,2.397,1.603,4.348,4,4.348s4-1.95,4-4.348v-70.602h30.594l12.993,15.633l-13.048,16.367H23.113c-2.397,0-4.348,2.103-4.348,4.5
		s1.95,4.5,4.348,4.5h18.482c1.192,0,2.457-0.856,3.385-2.005l16.604-20.861c1.312-1.625,1.288-3.84-0.059-5.438L44.921,106.3z"/>
</g>
<path fill="#FFFFFF" d="M215.047,236.305c-0.227,0-0.453-0.059-0.656-0.178l-67.983-39.834c-0.618-0.362-0.826-1.157-0.463-1.775
	c0.362-0.619,1.157-0.826,1.775-0.463l65.989,38.666l-1.264-72.715c-0.013-0.716,0.558-1.307,1.274-1.319
	c0.714-0.034,1.307,0.558,1.32,1.275l1.304,75.025c0.008,0.469-0.237,0.906-0.642,1.142
	C215.499,236.245,215.273,236.305,215.047,236.305z"/>
<path fill="#FFFFFF" d="M147.064,196.471c-0.231,0-0.461-0.062-0.663-0.182l-59.154-35.191c-0.616-0.366-0.818-1.162-0.452-1.778
	s1.163-0.817,1.778-0.452l57.98,34.492l17.899-33.982c0.334-0.634,1.118-0.878,1.752-0.543c0.634,0.334,0.877,1.118,0.543,1.752
	l-18.535,35.191c-0.166,0.315-0.453,0.548-0.796,0.644C147.3,196.455,147.182,196.471,147.064,196.471z"/>
<polygon fill="#2118D4" points="158.783,176.731 224.774,213.434 165.769,226.932 "/>
<path fill="#FFFFFF" d="M39.784,94.099c-0.148,0-0.299-0.026-0.446-0.08c-0.673-0.246-1.018-0.992-0.772-1.664l29.681-81.002
	L26.318,75.046l-4.049,18.04c-0.157,0.699-0.852,1.139-1.55,0.981c-0.699-0.157-1.139-0.851-0.982-1.55l4.101-18.271
	c0.034-0.153,0.096-0.298,0.182-0.429L72.229,0.584c0.362-0.55,1.079-0.742,1.667-0.445c0.588,0.296,0.861,0.986,0.634,1.605
	L41.002,93.248C40.809,93.774,40.313,94.099,39.784,94.099z"/>
<path fill="#FFFFFF" d="M212.308,66.996c-0.184,0-0.37-0.039-0.545-0.12L72.767,2.475c-0.592-0.274-0.889-0.946-0.691-1.569
	c0.197-0.623,0.826-1,1.469-0.885L189.57,21.108c0.391,0.071,0.728,0.318,0.914,0.669l22.971,43.313
	c0.261,0.492,0.179,1.096-0.204,1.5C213,66.855,212.657,66.996,212.308,66.996z M83.073,4.39L209.356,62.9l-20.87-39.352
	L83.073,4.39z"/>
<path fill="#FFFFFF" d="M192.37,105.608c-0.2,0-0.404-0.047-0.594-0.145c-0.637-0.329-0.886-1.111-0.558-1.748l18.52-35.866
	l-121.446,37.47c-0.685,0.212-1.411-0.173-1.622-0.857c-0.211-0.685,0.173-1.411,0.857-1.622l124.399-38.381
	c0.5-0.155,1.043,0.006,1.377,0.407c0.335,0.401,0.398,0.963,0.158,1.428l-19.938,38.612
	C193.293,105.351,192.84,105.607,192.37,105.608z"/>
<path fill="#FFFFFF" d="M152.954,250.022c-0.085,0-0.17-0.008-0.255-0.025l-68.095-13.648c-0.518-0.104-0.922-0.512-1.02-1.032
	s0.129-1.047,0.574-1.332l62.206-39.903c0.378-0.242,0.854-0.272,1.259-0.079c0.405,0.193,0.682,0.582,0.731,1.029l5.89,53.551
	c0.045,0.411-0.109,0.819-0.414,1.099C153.588,249.902,153.275,250.022,152.954,250.022z M88.26,234.435l63.21,12.669l-5.467-49.709
	L88.26,234.435z"/>
<path fill="#FFFFFF" d="M84.859,236.374c-0.004,0-0.008-0.002-0.013,0c-0.002,0-0.003,0-0.005,0H84.84
	c-0.062-0.001-0.124-0.006-0.187-0.017l-63.385-10.162c-0.501-0.08-0.909-0.445-1.044-0.933l-8.27-29.741
	c-0.192-0.691,0.212-1.406,0.902-1.598c0.691-0.192,1.406,0.212,1.597,0.902l8.047,28.94l57.248,9.178L20.237,189.38
	c-0.534-0.391-0.688-1.122-0.357-1.695s1.04-0.805,1.647-0.539l40.45,17.821l-18.989-44.39c-0.282-0.659,0.024-1.421,0.682-1.703
	c0.659-0.281,1.421,0.025,1.703,0.682l19.888,46.492l81.612-12.159c0.603-0.089,1.19,0.255,1.406,0.827
	c0.215,0.573,0.001,1.217-0.514,1.548l-62.206,39.903C85.342,236.308,85.099,236.374,84.859,236.374z M66.788,208.445l18.392,24.884
	l56.091-35.981L66.788,208.445z M31.383,194.324l47.371,34.677l-15.131-20.473L31.383,194.324z"/>
<path fill="#FFFFFF" d="M21.474,226.212c-0.416,0-0.824-0.199-1.075-0.569L0.224,195.902c-0.402-0.593-0.248-1.4,0.345-1.802
	c0.593-0.403,1.4-0.248,1.802,0.345l20.176,29.741c0.402,0.593,0.248,1.4-0.345,1.802C21.978,226.14,21.725,226.212,21.474,226.212z
	"/>
<path fill="#FFFFFF" d="M215.046,236.305c-0.557,0-1.062-0.36-1.235-0.904c-0.192-0.603,0.079-1.257,0.642-1.547l77.3-39.834
	c0.445-0.23,0.982-0.182,1.38,0.121c0.398,0.303,0.587,0.809,0.484,1.298l-6.24,29.741c-0.112,0.535-0.547,0.941-1.087,1.018
	l-71.06,10.093C215.167,236.3,215.106,236.305,215.046,236.305z M290.517,197.576l-68.051,35.067l62.557-8.885L290.517,197.576z"/>
<path fill="#FFFFFF" d="M292.347,196.471c-0.462,0-0.894-0.247-1.126-0.654l-20.089-35.191c-0.355-0.622-0.139-1.415,0.484-1.77
	c0.622-0.354,1.414-0.139,1.77,0.484l18.636,32.644l10.539-32.403c0.222-0.681,0.953-1.054,1.635-0.832
	c0.681,0.221,1.054,0.953,0.832,1.635l-11.445,35.191c-0.159,0.488-0.591,0.837-1.102,0.889
	C292.435,196.469,292.391,196.471,292.347,196.471z"/>
<path fill="#FFFFFF" d="M292.346,196.471c-0.28,0-0.562-0.09-0.799-0.276c-0.564-0.442-0.663-1.257-0.221-1.821l27.385-34.948
	l1.035-5.188c0.14-0.703,0.826-1.157,1.526-1.019c0.703,0.14,1.159,0.824,1.018,1.526l-1.096,5.491
	c-0.04,0.199-0.126,0.387-0.251,0.546l-27.575,35.191C293.112,196.3,292.731,196.471,292.346,196.471z"/>
<path fill="#FFFFFF" d="M237.418,105.607c-0.424,0-0.84-0.208-1.089-0.59l-22.682-34.881l0.317,34.162
	c0.007,0.716-0.569,1.303-1.285,1.309c-0.004,0-0.008,0-0.012,0c-0.711,0-1.291-0.573-1.297-1.285l-0.358-38.612
	c-0.005-0.577,0.371-1.088,0.923-1.254s1.148,0.051,1.462,0.535l25.108,38.612c0.391,0.601,0.22,1.404-0.38,1.795
	C237.906,105.539,237.66,105.607,237.418,105.607z"/>
<path fill="#FFFFFF" d="M303.792,105.608c-0.168,0-0.339-0.033-0.504-0.103l-91.484-38.612c-0.66-0.279-0.969-1.04-0.691-1.7
	c0.278-0.66,1.039-0.97,1.699-0.691l91.484,38.612c0.66,0.278,0.969,1.039,0.691,1.699
	C304.779,105.31,304.298,105.608,303.792,105.608z"/>
<path fill="#FFFFFF" d="M321.018,92.876c-0.164,0-0.33-0.031-0.49-0.097L223.73,53.216c-0.277-0.113-0.506-0.319-0.649-0.581
	L199.319,8.908c-0.287-0.528-0.174-1.183,0.273-1.584c0.446-0.401,1.111-0.444,1.605-0.102l120.559,83.29
	c0.545,0.376,0.719,1.103,0.403,1.685C321.926,92.626,321.481,92.876,321.018,92.876z M225.14,50.989l85.322,34.873L204.195,12.446
	L225.14,50.989z"/>
<path fill="#FFFFFF" d="M165.127,228.783c-0.262,0-0.52-0.08-0.738-0.231c-0.297-0.206-0.494-0.525-0.546-0.882l-7.391-51.308
	c-0.07-0.489,0.142-0.974,0.549-1.254c0.406-0.28,0.937-0.305,1.367-0.064l68.084,37.949c0.471,0.262,0.73,0.788,0.652,1.322
	c-0.078,0.533-0.478,0.963-1.005,1.078l-60.693,13.359C165.314,228.773,165.22,228.783,165.127,228.783z M159.393,178.587
	l6.819,47.332l55.989-12.324L159.393,178.587z"/>
<path fill="none" stroke="#FFFFFF" stroke-width="2.8346" stroke-linecap="round" stroke-linejoin="round" stroke-miterlimit="10" d="
	M215.047,235.008"/>
</svg>
