<?xml version="1.0" encoding="utf-8"?>
<!-- Generator: Adobe Illustrator 17.1.0, SVG Export Plug-In . SVG Version: 6.00 Build 0)  -->
<!DOCTYPE svg PUBLIC "-//W3C//DTD SVG 1.1//EN" "http://www.w3.org/Graphics/SVG/1.1/DTD/svg11.dtd">
<svg version="1.1" id="Layer_1" xmlns="http://www.w3.org/2000/svg" xmlns:xlink="http://www.w3.org/1999/xlink" x="0px" y="0px"
	 viewBox="0 0 878.7 643.5" enable-background="new 0 0 878.7 643.5" xml:space="preserve">
<g>
	<path fill="#FFFFFF" d="M552.3,559l0.8,44.4L497.8,571L493,572l61,35.7c0.3,0.2,0.6,0.2,0.8,0.2c0.3,0,0.6-0.1,0.8-0.2
		c0.5-0.3,0.8-0.9,0.8-1.5l-0.8-48L552.3,559z"/>
	<path fill="#FFFFFF" d="M555.3,537l-2.2-124.8c0-0.9-0.8-1.7-1.7-1.6c-0.9,0-1.7,0.8-1.6,1.7l2.1,122.9L555.3,537z"/>
	<path fill="#FFFFFF" d="M416.5,523.3l-36.7-21.5c-0.8-0.5-1.8-0.2-2.3,0.6c-0.5,0.8-0.2,1.8,0.6,2.3l39,22.9L416.5,523.3z"/>
</g>
<g>
	<path fill="#FFFFFF" d="M469.1,382.3h-49.8c-3.5,0-6.8-1.9-8.4-5L394,344.8c-1.5-2.9-1.4-6.3,0.2-9.1l19.1-32.6
		c1.7-2.9,4.8-4.7,8.2-4.7h47.6c5.2,0,9.9,4.4,9.9,9.6v65.1C479,378.3,474.3,382.3,469.1,382.3z M425.1,364.3H460v-47h-33
		l-13.7,23.8L425.1,364.3z"/>
	<path fill="#FFFFFF" d="M813,382.5c-5.2,0-10-4.2-10-9.5v-65.1c0-5.2,3-9.6,8.3-9.6h51.6c3.6,0,6.8,2.1,8.4,5.2l6.4,12.4
		c2.4,4.7,0.5,10.4-4.1,12.8c-4.7,2.4-10.4,0.5-12.7-4.2l-3.7-7.2H823v55.8C823,378.3,818.2,382.5,813,382.5z"/>
	<path fill="#FFFFFF" d="M685.5,335.5l-16.9-32.1c-1.6-3.1-4.9-5.1-8.4-5.1H610c-0.2,0-0.4,0.1-0.6,0.1c-0.2,0-0.1,0-0.3,0
		c-5.2,0-9.1,4.3-9.1,9.5v93.5c0,5.2,4.3,9.5,9.5,9.5s9.5-4.2,9.5-9.5v-19.2h39c3.4,0,6.5-1.7,8.2-4.6l19.1-33.1
		C686.9,341.8,687,338.4,685.5,335.5z M652.5,364.3H619v-47h35.5l11.8,22.7L652.5,364.3z"/>
	<path fill="#FFFFFF" d="M775.8,382.3h-50.9c-3.5,0-6.8-1.9-8.4-5l-16.9-32.5c-1.5-2.9-1.4-6.3,0.2-9.1l19.1-32.6
		c1.7-2.9,4.8-4.7,8.2-4.7h49.2c3.3,0,6.4,1.8,8.1,4.7c1.7,2.9,1.8,6.4,0.2,9.4L767,344.9c-1.6,3.1-4.9,4.4-8.4,4.4h-11.2
		c-5.2,0-9.5-3.3-9.5-8.5s4.2-8.5,9.5-8.5h5.6l7.6-15h-28l-13.7,23.8l11.8,23.2h45.2c5.2,0,9.5,3.8,9.5,9S781,382.3,775.8,382.3z"/>
	<path fill="#FFFFFF" d="M586.3,335.5l-16.9-32.1c-1.6-3.1-4.9-5.1-8.4-5.1h-51.7c-0.2,0-0.4,0.1-0.6,0.1c-0.2,0,0.3,0,0.1,0
		c-5.2,0-8.8,4.3-8.8,9.5v93.5c0,5.2,4.3,9.5,9.5,9.5s9.5-4.2,9.5-9.5v-19.2h39.9c3.4,0,6.5-1.7,8.2-4.6l19.1-33.1
		C587.8,341.8,587.9,338.4,586.3,335.5z M553.4,364.3H519v-47h36.4l11.8,22.7L553.4,364.3z"/>
	<path fill="#FFFFFF" d="M289.5,382.5c-5.2,0-9.5-4.2-9.5-9.5v-93.5c0-4.1,2.4-7.7,6.3-9c3.8-1.3,8,0,10.5,3.2l32.9,42.9l31.1-42.5
		c2.4-3.4,7.2-4.8,11.1-3.5c3.9,1.3,7.1,4.9,7.1,9v93.4c0,5.2-4.3,9.5-9.5,9.5s-9.5-4.2-9.5-9.5v-64.9l-21.9,30
		c-1.7,2.4-4.8,3.9-7.8,4c-3,0-5.8-1.3-7.6-3.7l-23.7-31v65.6C299,378.3,294.7,382.5,289.5,382.5z"/>
</g>
<g>
	<path fill="#FFFFFF" d="M188,328.2c-6.2,0-11,5-11,11.1v134.7c0,6.1,4.8,11.1,11,11.1s11-5,11-11.1V339.2
		C199,333.1,194.2,328.2,188,328.2z"/>
	<path fill="#FFFFFF" d="M187.4,300.7c8.5,0,15.4-6.9,15.4-15.4c0-8.5-6.9-15.4-15.4-15.4s-15.4,6.9-15.4,15.4
		C172,293.8,178.9,300.7,187.4,300.7z"/>
	<path fill="#FFFFFF" d="M114.7,273.3c-1.9-2.3-4.7-3-8.6-3h-94C6.2,270.3,0,273,0,279.5v194.2c0,6.2,5.3,11.2,11.5,11.2
		s11.5-5,11.5-11.2V292.3h77.8l33.6,39.5l-33.8,41.5H58.3c-6.2,0-11.2,5.3-11.2,11.5s5,11.5,11.2,11.5h47.8c3.1,0,6.4-1.8,8.8-4.8
		l43-53.8c3.4-4.2,3.3-9.8-0.2-14L114.7,273.3z"/>
</g>
<path fill="#FFFFFF" d="M425.7,588.5c-0.3,0-0.7-0.1-1-0.3c-0.4-0.3-0.6-0.7-0.7-1.1l-19.1-132.7c-0.1-0.6,0.2-1.3,0.7-1.6
	c0.5-0.4,1.2-0.4,1.8-0.1l176.1,98.2c0.6,0.3,0.9,1,0.8,1.7c-0.1,0.7-0.6,1.2-1.3,1.4l-157,34.6
	C425.9,588.5,425.8,588.5,425.7,588.5z M408.7,457.2l18.4,127.6L578,551.6L408.7,457.2z"/>
<path fill="#FFFFFF" d="M554.8,608c-0.7,0-1.4-0.5-1.6-1.2c-0.2-0.8,0.1-1.6,0.8-2l200-103.1c0.6-0.3,1.3-0.2,1.8,0.2
	c0.5,0.4,0.8,1,0.6,1.7l-16.1,76.9c-0.1,0.7-0.7,1.2-1.4,1.3L555,608C555,608,554.9,608,554.8,608z M752.4,506.3l-188,96.9
	l172.8-24.5L752.4,506.3z"/>
<g>
	<path fill="#FFFFFF" d="M378.9,504.9c-0.3,0-0.6-0.1-0.9-0.2l-153-91c-0.8-0.5-1.1-1.5-0.6-2.3s1.5-1.1,2.3-0.6l151.5,90.1
		l47.1-89.5c0.4-0.8,1.4-1.1,2.3-0.7c0.8,0.4,1.1,1.4,0.7,2.3l-48,91c-0.2,0.4-0.6,0.7-1,0.8C379.2,504.9,379.1,504.9,378.9,504.9z"
		/>
	
		<path fill="#FFFFFF" stroke="#FFFFFF" stroke-width="3.3562" stroke-linecap="round" stroke-linejoin="round" stroke-miterlimit="10" d="
		M554.8,606.3"/>
	<path fill="#FFFFFF" d="M394.2,643.5c-0.1,0-0.2,0-0.3,0l-176.2-35.3c-0.7-0.1-1.2-0.7-1.3-1.3c-0.1-0.7,0.2-1.4,0.7-1.7L378,501.8
		c0.5-0.3,1.1-0.3,1.6-0.1c0.5,0.3,0.9,0.8,0.9,1.3l15.2,138.5c0.1,0.5-0.1,1.1-0.5,1.4C395,643.3,394.6,643.5,394.2,643.5z
		 M222.4,605.6l169.8,34l-14.7-133.6L222.4,605.6z"/>
	<path fill="#FFFFFF" d="M218,608.1c-0.1,0-0.2,0-0.3,0h0l-164-26.3c-0.6-0.1-1.2-0.6-1.4-1.2L31,503.7c-0.2-0.9,0.3-1.8,1.2-2.1
		c0.9-0.2,1.8,0.3,2.1,1.2l21.1,75.9l156,25L51.8,486.9c-0.7-0.5-0.9-1.5-0.5-2.2c0.4-0.7,1.3-1,2.1-0.7L162,531.8l-50.8-118.7
		c-0.4-0.9,0-1.8,0.9-2.2c0.9-0.4,1.8,0,2.2,0.9l52,121.5l212.4-31.6c0.8-0.1,1.5,0.3,1.8,1.1c0.3,0.7,0,1.6-0.7,2L218.9,607.9
		C218.6,608.1,218.3,608.1,218,608.1z M168.2,536.3l50.2,67.9l153-98.2L168.2,536.3z M66.2,493.3l143.9,105.3l-46-62.2L66.2,493.3z"
		/>
	<path fill="#FFFFFF" d="M54,581.9c-0.5,0-1.1-0.3-1.4-0.7L0.4,504.2c-0.5-0.8-0.3-1.8,0.4-2.3c0.8-0.5,1.8-0.3,2.3,0.4l52.2,76.9
		c0.5,0.8,0.3,1.8-0.4,2.3C54.7,581.8,54.3,581.9,54,581.9z"/>
	<path fill="#FFFFFF" d="M754.8,504.9c-0.6,0-1.2-0.3-1.5-0.8l-52-91c-0.5-0.8-0.2-1.8,0.6-2.3c0.8-0.5,1.8-0.2,2.3,0.6l50.1,87.7
		l28.4-87.4c0.3-0.9,1.2-1.4,2.1-1.1c0.9,0.3,1.4,1.2,1.1,2.1l-29.6,91c-0.2,0.6-0.8,1.1-1.4,1.2
		C754.9,504.9,754.8,504.9,754.8,504.9z"/>
	<path fill="#FFFFFF" d="M754.8,504.9c-0.4,0-0.7-0.1-1-0.4c-0.7-0.6-0.9-1.6-0.3-2.4l71.1-90.7l2.8-13.8c0.2-0.9,1.1-1.5,2-1.3
		c0.9,0.2,1.5,1.1,1.3,2l-2.8,14.2c-0.1,0.3-0.2,0.5-0.3,0.7l-71.3,91C755.8,504.7,755.3,504.9,754.8,504.9z"/>
	<g>
		<path fill="#FFFFFF" d="M101.4,240.1c-0.2,0-0.4,0-0.6-0.1c-0.9-0.3-1.3-1.3-1-2.2l81.8-223.1L65,191.8l-10.5,47
			c-0.2,0.9-1.1,1.5-2,1.3c-0.9-0.2-1.5-1.1-1.3-2l10.6-47.3c0-0.2,0.1-0.4,0.2-0.6L186.7,0.8c0.5-0.7,1.4-1,2.2-0.6
			c0.8,0.4,1.1,1.3,0.8,2.1L103,239C102.7,239.7,102.1,240.1,101.4,240.1z"/>
		<path fill="#FFFFFF" d="M547.7,170c-0.2,0-0.5-0.1-0.7-0.2L187.4,3.2c-0.8-0.4-1.1-1.2-0.9-2c0.3-0.8,1.1-1.3,1.9-1.1l300.2,54.6
			c0.5,0.1,0.9,0.4,1.2,0.9l59.4,112.1c0.3,0.6,0.2,1.4-0.3,1.9C548.6,169.8,548.2,170,547.7,170z M200.8,5.7l343.1,159L487.2,57.7
			L200.8,5.7z"/>
		<path fill="#FFFFFF" d="M496.1,269.9c-0.3,0-0.5-0.1-0.8-0.2c-0.8-0.4-1.1-1.4-0.7-2.3l49.7-96.3l-318,98.1
			c-0.9,0.3-1.8-0.2-2.1-1.1c-0.3-0.9,0.2-1.8,1.1-2.1l321.8-99.3c0.6-0.2,1.3,0,1.8,0.5c0.4,0.5,0.5,1.2,0.2,1.8l-51.6,99.9
			C497.3,269.5,496.7,269.9,496.1,269.9z"/>
		<path fill="#FFFFFF" d="M612.7,269.9c-0.5,0-1.1-0.3-1.4-0.8L549.4,174l0.9,94.1c0,0.9-0.7,1.7-1.7,1.7c0,0,0,0,0,0
			c-0.9,0-1.7-0.7-1.7-1.7l-0.9-99.9c0-0.7,0.5-1.4,1.2-1.6c0.7-0.2,1.5,0.1,1.9,0.7l65,99.9c0.5,0.8,0.3,1.8-0.5,2.3
			C613.3,269.8,613,269.9,612.7,269.9z"/>
		<path fill="#FFFFFF" d="M784.4,269.9c-0.2,0-0.4,0-0.7-0.1l-236.7-99.9c-0.9-0.4-1.3-1.3-0.9-2.2c0.4-0.9,1.3-1.3,2.2-0.9
			L785,266.6c0.9,0.4,1.3,1.3,0.9,2.2C785.7,269.5,785,269.9,784.4,269.9z"/>
		<path fill="#FFFFFF" d="M828.9,236.9c-0.2,0-0.4,0-0.6-0.1L577.9,134.4c-0.4-0.1-0.7-0.4-0.8-0.8L515.6,20.6
			c-0.4-0.7-0.2-1.5,0.4-2c0.6-0.5,1.4-0.6,2.1-0.1l311.9,215.5c0.7,0.5,0.9,1.4,0.5,2.2C830.1,236.6,829.5,236.9,828.9,236.9z
			 M579.7,131.6l235.6,96.3L521.9,25.1L579.7,131.6z"/>
	</g>
</g>
</svg>
